#!OML:ASF F:\VICON\USERDATA\INSTALL\Justin_Nancy\Justin_Nancy.ASF
:FULLY-SPECIFIED
:DEGREES
159
root 0.402539 17.5008 -7.02261 -0.590741 5.42444 3.02716
lowerback 5.242 -1.97224 -4.56449
upperback 0.313071 -2.83431 2.47212
thorax -2.26816 -1.35997 5.32476
lowerneck -16.522 -3.17109 -9.73667
upperneck 23.4961 -2.72953 3.79168
head 10.4676 -1.67732 2.60713
rclavicle -1.53561e-014 -2.38542e-015
rhumerus -37.1784 -22.1055 -73.0389
rradius 21.8455
rwrist 17.911
rhand -14.7405 10.1539
rfingers 7.12502
rthumb 11.415 -19.5154
lclavicle -1.53561e-014 -2.38542e-015
lhumerus -24.494 4.56826 87.4581
lradius 32.4858
lwrist -6.81953
lhand -15.3492 29.0212
lfingers 7.12502
lthumb 10.8279 58.7221
rfemur -23.0459 4.19106 18.6111
rtibia 23.9146
rfoot 4.36523 -5.45051
rtoes -1.03075
lfemur 6.40053 -5.19707 -26.4307
ltibia 31.8536
lfoot -9.49484 0.428495
ltoes -18.5894
160
root 0.380946 17.5181 -6.8955 -0.771561 5.72209 2.89185
lowerback 5.21619 -2.0202 -4.54061
upperback 0.456062 -2.89343 2.53635
thorax -2.09601 -1.39827 5.37624
lowerneck -16.6948 -3.20835 -9.80292
upperneck 23.596 -2.78604 3.94609
head 10.5445 -1.69107 2.66645
rclavicle -2.43511e-015 -3.02153e-014
rhumerus -36.8578 -21.7477 -73.3564
rradius 22.2565
rwrist 17.2474
rhand -14.7146 10.4389
rfingers 7.12502
rthumb 11.44 -19.229
lclavicle -2.43511e-015 -3.02153e-014
lhumerus -24.3787 4.57939 87.6471
lradius 31.9191
lwrist -6.67585
lhand -15.3881 28.9226
lfingers 7.12502
lthumb 10.7904 58.6254
rfemur -22.3828 4.1996 18.8846
rtibia 23.9098
rfoot 4.14189 -5.81573
rtoes -0.630046
lfemur 5.71847 -5.01837 -25.9868
ltibia 33.7904
lfoot -8.20629 -0.291637
ltoes -17.9604
161
root 0.356421 17.5395 -6.76742 -0.908036 6.07582 2.59856
lowerback 5.15171 -2.06306 -4.31014
upperback 0.46753 -2.93387 2.57637
thorax -2.0524 -1.4219 5.28611
lowerneck -16.2359 -3.22138 -9.79916
upperneck 23.3576 -2.89268 4.09845
head 10.3789 -1.72111 2.70539
rclavicle 1.62506e-014 -1.74931e-014
rhumerus -36.7888 -21.3889 -73.6637
rradius 22.6264
rwrist 16.3121
rhand -14.8111 10.5618
rfingers 7.12502
rthumb 11.3469 -19.1112
lclavicle 1.62506e-014 -1.74931e-014
lhumerus -24.5869 4.30185 87.7945
lradius 31.4535
lwrist -6.5091
lhand -16.6112 25.3215
lfingers 7.12502
lthumb 9.61045 55.0823
rfemur -21.7427 4.38321 19.3152
rtibia 23.9143
rfoot 3.70217 -6.28735
rtoes -0.71235
lfemur 4.82998 -4.78987 -25.2728
ltibia 35.8544
lfoot -6.57895 -1.04338
ltoes -17.7487
162
root 0.327786 17.5548 -6.64265 -0.967233 6.32298 2.37299
lowerback 5.19192 -2.10196 -4.25169
upperback 0.375477 -2.98223 2.65863
thorax -2.16288 -1.44106 5.34679
lowerneck -16.0247 -3.26558 -9.86318
upperneck 23.4186 -2.99476 4.22419
head 10.3715 -1.76223 2.74929
rclavicle 1.19271e-015 5.56597e-015
rhumerus -36.7791 -20.8048 -73.9598
rradius 23.0017
rwrist 15.4855
rhand -15.3414 11.6112
rfingers 7.12502
rthumb 10.8355 -18.0892
lclavicle 1.19271e-015 5.56597e-015
lhumerus -24.9027 4.26682 87.8637
lradius 30.9897
lwrist -6.89025
lhand -17.5489 21.7123
lfingers 7.12502
lthumb 8.70569 51.5128
rfemur -21.2203 4.72798 19.6838
rtibia 23.9408
rfoot 3.36754 -6.94021
rtoes -0.643376
lfemur 3.72195 -4.40176 -24.5908
ltibia 37.9566
lfoot -4.69974 -1.84071
ltoes -18.3067
163
root 0.302967 17.5626 -6.5224 -1.05352 6.45135 2.09729
lowerback 5.39664 -2.07598 -4.06597
upperback 0.239285 -2.94143 2.73366
thorax -2.42901 -1.41119 5.33234
lowerneck -15.984 -3.40761 -10.0042
upperneck 23.6621 -3.21326 4.405
head 10.4758 -1.85897 2.81113
rclavicle 1.14053e-014 3.18055e-015
rhumerus -36.8369 -20.0953 -74.2643
rradius 23.5083
rwrist 14.6363
rhand -15.89 12.9689
rfingers 7.12502
rthumb 10.3063 -16.7586
lclavicle 1.14053e-014 3.18055e-015
lhumerus -25.3743 4.01686 87.9907
lradius 30.6934
lwrist -7.32029
lhand -18.5402 19.4802
lfingers 7.12502
lthumb 7.749 49.3182
rfemur -20.647 4.99093 20.1245
rtibia 23.8662
rfoot 3.1297 -7.42911
rtoes -0.486508
lfemur 2.57617 -3.94923 -23.8866
ltibia 40.1193
lfoot -2.67744 -2.67596
ltoes -18.5013
164
root 0.28361 17.5764 -6.40063 -1.14682 6.79037 1.78858
lowerback 5.29357 -2.12585 -3.81308
upperback 0.350594 -2.98678 2.83481
thorax -2.25791 -1.44348 5.28867
lowerneck -16.1779 -3.52259 -10.1609
upperneck 23.688 -3.36058 4.59394
head 10.5412 -1.91646 2.88402
rclavicle 1.06598e-014 8.74653e-015
rhumerus -36.3708 -19.5138 -74.6931
rradius 23.8973
rwrist 13.6364
rhand -16.0068 13.4921
rfingers 7.12502
rthumb 10.1936 -16.241
lclavicle 1.06598e-014 8.74653e-015
lhumerus -25.4585 3.76826 88.2152
lradius 30.5121
lwrist -7.7472
lhand -19.6533 16.48
lfingers 7.12502
lthumb 6.67453 46.3548
rfemur -19.9343 4.7563 20.6198
rtibia 23.6727
rfoot 2.55937 -7.74814
rtoes -0.430193
lfemur 1.41422 -3.72603 -23.1655
ltibia 42.3111
lfoot -0.811441 -3.5676
ltoes -17.7437
